<?xml version="1.0" encoding="UTF-8" standalone="no"?>
<svg
   viewBox="0 0 512 512"
   version="1.1"
   id="svg16"
   sodipodi:docname="icon_without_border.svg"
   xml:space="preserve"
   inkscape:version="1.4.3 (0d15f75, 2025-12-25)"
   xmlns:inkscape="http://www.inkscape.org/namespaces/inkscape"
   xmlns:sodipodi="http://sodipodi.sourceforge.net/DTD/sodipodi-0.dtd"
   xmlns="http://www.w3.org/2000/svg"
   xmlns:svg="http://www.w3.org/2000/svg"><defs
     id="defs16" /><sodipodi:namedview
     id="namedview16"
     pagecolor="#ffffff"
     bordercolor="#000000"
     borderopacity="0.25"
     inkscape:showpageshadow="2"
     inkscape:pageopacity="0.0"
     inkscape:pagecheckerboard="0"
     inkscape:deskcolor="#d1d1d1"
     inkscape:zoom="2"
     inkscape:cx="311"
     inkscape:cy="281.25"
     inkscape:window-width="2560"
     inkscape:window-height="1411"
     inkscape:window-x="-9"
     inkscape:window-y="-9"
     inkscape:window-maximized="1"
     inkscape:current-layer="svg16" /><!-- Map base --><!-- Roads (horizontal: y=114, y=358 / vertical: x=112, x=362) --><!-- Road centre dashes --><!-- City blocks: top row --><!-- City blocks: middle row (left and right only — centre is clear) --><!-- City blocks: bottom row --><!-- White circle centred on the map --><!-- Bike icon (Material Design path, 24×24 viewBox scaled to fit the circle) --><path
     d="M 251.21774,1.1022711 V 32.012618 h 39.42876 l 22.01017,61.820566 h -72.81431 l -5.30259,-15.455148 h 16.67797 V 47.467791 h -75.83591 v 30.910245 h 26.5426 l 27.31274,77.275754 h -9.86461 C 215.8336,138.13806 207.43432,123.4617 194.16304,111.61269 180.89173,99.763626 164.51191,93.833184 145.04749,93.833184 c -20.98127,0 -38.86009,7.405676 -53.64804,22.216816 -14.788001,14.81114 -22.18795,33.16413 -22.18795,55.05898 0,21.89481 7.267719,40.2478 21.802877,55.05897 14.535163,14.8111 32.546213,22.21677 54.033113,22.21677 18.70603,0 34.87266,-5.84805 48.52313,-17.56819 13.65046,-11.7201 22.26298,-26.47899 25.80194,-44.25243 h 63.6903 c 3.79187,18.03107 12.58807,32.84223 26.36487,44.43358 13.77678,11.59132 29.75967,17.38704 47.96029,17.38704 21.2341,0 39.19369,-7.59277 53.85536,-22.79033 14.66165,-15.19754 21.98054,-33.63305 21.98054,-55.27025 0,-21.37954 -7.39986,-39.59778 -22.18795,-54.66654 C 396.24801,100.58882 378.36924,93.048366 357.38802,93.048366 H 345.24247 L 319.47008,21.206068 C 317.19498,15.023968 313.45459,10.111729 308.27249,6.505587 303.09027,2.8993736 297.21891,1.1022711 290.6465,1.1022711 Z M 145.04749,124.74351 c 10.36416,0 19.26305,2.84548 26.72033,8.51235 7.45721,5.66694 12.72619,13.12486 15.75956,22.39793 h -42.47989 v 30.91031 h 42.47989 c -3.03337,9.01549 -8.30235,16.42109 -15.75956,22.21678 -7.45728,5.79574 -16.35617,8.69352 -26.72033,8.69352 -12.89211,0 -23.68693,-4.50781 -32.40808,-13.52322 -8.72111,-9.01542 -13.093474,-19.96294 -13.093474,-32.8422 0,-13.13693 4.372364,-24.13661 13.093474,-33.02332 8.72115,-8.88672 19.51597,-13.34215 32.40808,-13.34215 z m 105.40002,0 h 46.27176 c -3.53893,4.37889 -6.38279,9.15639 -8.53156,14.30807 -2.14869,5.15167 -3.86092,10.67782 -5.12485,16.60221 h -21.23995 z m 105.42968,0 h 1.51063 c 12.89215,0 23.68696,4.45543 32.40811,13.34215 8.72114,8.88671 13.0935,19.88639 13.0935,33.02332 0,12.87926 -4.37236,23.82678 -13.0935,32.8422 -8.72115,9.01541 -19.51596,13.52322 -32.40811,13.52322 -12.89208,0 -23.68682,-4.50781 -32.40795,-13.52322 -8.72118,-9.01542 -13.09354,-19.96294 -13.09354,-32.8422 0,-7.46996 1.39691,-14.17938 4.17685,-20.10378 2.78061,-5.92438 6.70485,-11.07626 11.76052,-15.45511 l 14.39703,40.96217 28.82349,-10.80655 z"
     id="path20"
     style="fill:#e31837;fill-opacity:1;stroke-width:0.999996" /><path
     d="m 230.68382,268.00006 c -6.98941,0 -12.9799,2.30039 -17.94017,6.92242 -4.96021,4.62203 -7.87004,10.33076 -8.77192,17.09465 l -20.97863,175.86112 -57.49304,16.56626 v 27.05556 h 243.5 v -27.05556 l -57.49307,-16.56626 -20.9786,-175.86112 c -0.90231,-6.76389 -3.81171,-12.47262 -8.77194,-17.09465 -4.96022,-4.62203 -10.95076,-6.92242 -17.94014,-6.92242 z m 16.56624,27.05554 c 3.83284,0 7.05094,1.29055 9.64381,3.88395 2.59287,2.5929 3.88397,5.811 3.88397,9.64385 V 470.9167 H 233.72226 V 308.5834 c 0,-3.83285 1.29055,-7.05095 3.88397,-9.64385 2.59287,-2.59285 5.81102,-3.88395 9.64383,-3.88395 z"
     style="fill:#1a6fc4;fill-opacity:1;stroke-width:0.999996"
     id="path23" /></svg>
