<?xml version="1.0" encoding="UTF-8" standalone="no"?>
<svg
   viewBox="0 0 512 512"
   version="1.1"
   id="svg16"
   sodipodi:docname="icon_without_border.svg"
   xml:space="preserve"
   inkscape:version="1.4.3 (0d15f75, 2025-12-25)"
   xmlns:inkscape="http://www.inkscape.org/namespaces/inkscape"
   xmlns:sodipodi="http://sodipodi.sourceforge.net/DTD/sodipodi-0.dtd"
   xmlns="http://www.w3.org/2000/svg"
   xmlns:svg="http://www.w3.org/2000/svg"><defs
     id="defs16" /><sodipodi:namedview
     id="namedview16"
     pagecolor="#ffffff"
     bordercolor="#000000"
     borderopacity="0.25"
     inkscape:showpageshadow="2"
     inkscape:pageopacity="0.0"
     inkscape:pagecheckerboard="0"
     inkscape:deskcolor="#d1d1d1"
     inkscape:zoom="2"
     inkscape:cx="311"
     inkscape:cy="281.25"
     inkscape:window-width="2560"
     inkscape:window-height="1351"
     inkscape:window-x="2551"
     inkscape:window-y="-9"
     inkscape:window-maximized="1"
     inkscape:current-layer="svg16" /><!-- Map base --><!-- Roads (horizontal: y=114, y=358 / vertical: x=112, x=362) --><!-- Road centre dashes --><!-- City blocks: top row --><!-- City blocks: middle row (left and right only — centre is clear) --><!-- City blocks: bottom row --><!-- White circle centred on the map --><!-- Bike icon (Material Design path, 24×24 viewBox scaled to fit the circle) --><path
     d="M 42.657692,1.4999994 V 511.90627 H 96.383983 V 270.13471 H 472.47451 L 418.745,135.81895 472.47451,1.4999994 Z M 96.383983,55.226292 H 393.22533 l -32.23386,80.592658 32.23386,80.58945 H 96.383983 Z"
     style="fill:#000000;fill-opacity:1;stroke-width:0.0611117"
     id="path2" /><g
     id="g4"
     transform="matrix(1.7169811,0,0,1.7169811,-190.57414,-186.4717)"
     style="stroke-width:0.582418"><path
       d="m 248.85146,148.5 c -5.92765,0 -10.84572,1.64209 -14.75097,4.91971 -3.90525,3.27761 -6.58524,7.14148 -8.04971,11.60465 l 10.77107,4.60916 c 0.7671,-2.23156 2.07466,-4.43317 3.9227,-6.59502 1.84804,-2.16186 4.55033,-3.2444 8.10691,-3.2444 3.41712,0 6.08292,0.94471 8.00067,2.82761 1.91775,1.88289 2.87665,4.25069 2.87665,7.10989 0,2.37107 -0.74806,4.48547 -2.24739,6.33351 -1.49932,1.84804 -3.67863,4.02731 -6.53782,6.53783 -3.27762,2.92895 -5.4204,5.63124 -6.4316,8.10691 -1.01119,2.47567 -1.52004,6.5362 -1.52004,12.18488 h 12.02961 c 0,-4.11446 0.37114,-7.02763 1.10325,-8.73617 0.73224,-1.70854 2.802,-4.20003 6.21912,-7.47764 3.20791,-3.13816 5.56152,-5.94179 7.06085,-8.41746 1.49933,-2.47568 2.24738,-5.46182 2.24738,-8.94865 0,-5.71843 -1.96842,-10.61417 -5.90856,-14.69377 C 261.80343,150.54143 256.17383,148.5 248.85146,148.5 Z"
       style="stroke-width:0.582418"
       id="path4" /><path
       d="m 248.85146,211.26315 c -2.30132,0 -4.26974,0.82103 -5.90857,2.45986 -1.63883,1.63883 -2.45985,3.60725 -2.45985,5.90856 0,2.30132 0.82102,4.26974 2.45985,5.90857 1.63883,1.63883 3.60725,2.45986 5.90857,2.45986 2.30132,0 4.26974,-0.82103 5.90857,-2.45986 1.63883,-1.63883 2.45985,-3.60725 2.45985,-5.90857 0,-2.30131 -0.82102,-4.26973 -2.45985,-5.90856 -1.63883,-1.63883 -3.60725,-2.45986 -5.90857,-2.45986 z"
       style="stroke-width:0.582418"
       id="path3" /></g></svg>
