<?xml version="1.0" encoding="UTF-8" standalone="no"?>
<svg
   viewBox="0 0 512 512"
   version="1.1"
   id="svg16"
   sodipodi:docname="icon_with_border.svg"
   xml:space="preserve"
   inkscape:version="1.4.3 (0d15f75, 2025-12-25)"
   xmlns:inkscape="http://www.inkscape.org/namespaces/inkscape"
   xmlns:sodipodi="http://sodipodi.sourceforge.net/DTD/sodipodi-0.dtd"
   xmlns="http://www.w3.org/2000/svg"
   xmlns:svg="http://www.w3.org/2000/svg"><defs
     id="defs16" /><sodipodi:namedview
     id="namedview16"
     pagecolor="#ffffff"
     bordercolor="#000000"
     borderopacity="0.25"
     inkscape:showpageshadow="2"
     inkscape:pageopacity="0.0"
     inkscape:pagecheckerboard="0"
     inkscape:deskcolor="#d1d1d1"
     inkscape:zoom="1.4142136"
     inkscape:cx="82.731493"
     inkscape:cy="363.09933"
     inkscape:window-width="2560"
     inkscape:window-height="1351"
     inkscape:window-x="2551"
     inkscape:window-y="-9"
     inkscape:window-maximized="1"
     inkscape:current-layer="svg16"
     showgrid="true"
     showguides="true"><inkscape:grid
       id="grid10"
       units="px"
       originx="0"
       originy="0"
       spacingx="1"
       spacingy="1"
       empcolor="#0099e5"
       empopacity="0.30196078"
       color="#0099e5"
       opacity="0.14901961"
       empspacing="5"
       enabled="true"
       visible="true" /></sodipodi:namedview><!-- Map base --><!-- Roads (horizontal: y=114, y=358 / vertical: x=112, x=362) --><!-- Road centre dashes --><!-- City blocks: top row --><!-- City blocks: middle row (left and right only — centre is clear) --><!-- City blocks: bottom row --><!-- White circle centred on the map --><rect
     style="stroke-width:1.21284;fill:#0f298e;fill-opacity:1"
     id="rect16"
     width="512.005"
     height="512.00012"
     x="0.0016372881"
     y="0.0074708578"
     inkscape:highlight-color="#bd9797" /><ellipse
     fill="#ffffff"
     id="circle15"
     ry="221.39983"
     rx="218.68843"
     cy="256"
     cx="256"
     style="display:inline" /><!-- Bike icon (Material Design path, 24×24 viewBox scaled to fit the circle) --><path
     d="m 241.5061,247.51819 v 221.64875 h 23.33116 V 364.17535 h 163.32088 l -23.33255,-58.32789 23.33255,-58.32927 z m 23.33116,23.33114 h 128.90616 l -13.99785,34.99813 13.99785,34.99673 H 264.83726 Z"
     style="fill:#000000;fill-opacity:1;stroke-width:0.0611117"
     id="path2" /><g
     id="g14"
     transform="matrix(7.9659322,0,0,7.9659322,-1706.2642,-1035.0179)"
     style="stroke-width:0.125534"><path
       d="m 245.58789,151.93945 1.10156,1.35157 c 0.26667,0.38333 0.51667,0.77382 0.75,1.17382 0.23334,0.4 0.34961,0.82539 0.34961,1.27539 0,0.61667 -0.21705,1.1375 -0.65039,1.5625 -0.43333,0.425 -0.95078,0.63672 -1.55078,0.63672 -0.6,0 -1.10677,-0.21172 -1.52344,-0.63672 -0.41666,-0.425 -0.625,-0.94583 -0.625,-1.5625 0,-0.45 0.11094,-0.87539 0.33594,-1.27539 0.225,-0.4 0.48034,-0.79049 0.76367,-1.17382 z"
       id="path13"
       style="stroke-width:0.027678" /><path
       d="m 232.93945,138.93945 -1.55078,1.625 2.65039,2.65039 -5.75,5.72461 c -0.16666,0.16667 -0.29166,0.35078 -0.375,0.55078 -0.0833,0.2 -0.125,0.40834 -0.125,0.625 0,0.21667 0.0417,0.425 0.125,0.625 0.0833,0.2 0.20834,0.38412 0.375,0.55079 l 6.15039,6.14843 c 0.16667,0.16667 0.34883,0.29167 0.54883,0.375 0.2,0.0833 0.40833,0.125 0.625,0.125 0.21667,0 0.425,-0.0417 0.625,-0.125 0.2,-0.0833 0.38412,-0.20833 0.55078,-0.375 l 6.15039,-6.14843 c 0.16667,-0.16667 0.28633,-0.35079 0.36133,-0.55079 0.075,-0.2 0.11328,-0.40833 0.11328,-0.625 0,-0.21666 -0.0383,-0.425 -0.11328,-0.625 -0.075,-0.2 -0.19466,-0.38411 -0.36133,-0.55078 z"
       id="path12"
       style="stroke-width:0.027678" /><path
       d="m 235.61328,144.79102 -5.34961,5.3496 h 10.69922 z"
       style="fill:#ffffff;fill-opacity:1;stroke-width:0.125534"
       id="path14" /></g></svg>
