<?xml version="1.0" encoding="UTF-8" standalone="no"?>
<svg
   viewBox="0 0 512 512"
   version="1.1"
   id="svg16"
   sodipodi:docname="icon.svg"
   xml:space="preserve"
   inkscape:version="1.4.3 (0d15f75, 2025-12-25)"
   xmlns:inkscape="http://www.inkscape.org/namespaces/inkscape"
   xmlns:sodipodi="http://sodipodi.sourceforge.net/DTD/sodipodi-0.dtd"
   xmlns="http://www.w3.org/2000/svg"
   xmlns:svg="http://www.w3.org/2000/svg"><defs
     id="defs16" /><sodipodi:namedview
     id="namedview16"
     pagecolor="#ffffff"
     bordercolor="#000000"
     borderopacity="0.25"
     inkscape:showpageshadow="2"
     inkscape:pageopacity="0.0"
     inkscape:pagecheckerboard="0"
     inkscape:deskcolor="#d1d1d1"
     inkscape:zoom="2"
     inkscape:cx="311"
     inkscape:cy="281.25"
     inkscape:window-width="2560"
     inkscape:window-height="1411"
     inkscape:window-x="-9"
     inkscape:window-y="-9"
     inkscape:window-maximized="1"
     inkscape:current-layer="svg16" /><!-- Map base --><!-- Roads (horizontal: y=114, y=358 / vertical: x=112, x=362) --><!-- Road centre dashes --><!-- City blocks: top row --><!-- City blocks: middle row (left and right only — centre is clear) --><!-- City blocks: bottom row --><!-- White circle centred on the map --><rect
     style="fill:#e31837;fill-opacity:1"
     id="rect16"
     width="512.005"
     height="512.00012"
     x="0.0016372881"
     y="0.0074708578"
     inkscape:highlight-color="#bd9797" /><ellipse
     fill="#ffffff"
     id="circle15"
     ry="221.39983"
     rx="218.68843"
     cy="256"
     cx="256"
     style="display:inline" /><!-- Bike icon (Material Design path, 24×24 viewBox scaled to fit the circle) --><path
     d="m 250.21151,67.182397 v 22.672475 h 28.92066 l 16.14427,45.344858 h -53.40866 l -3.88941,-11.33622 h 12.23314 v -22.6724 h -55.62498 v 22.6724 h 19.46877 l 20.03366,56.6811 h -7.23561 c -2.59579,-12.84764 -8.7566,-23.61262 -18.49097,-32.30377 -9.73439,-8.69118 -21.74884,-13.04111 -36.02583,-13.04111 -15.38959,0 -28.50354,5.432 -39.35038,16.29585 -10.84687,10.86383 -16.27467,24.3256 -16.27467,40.38528 0,16.05966 5.33081,29.52142 15.99222,40.38528 10.66142,10.86382 23.87237,16.29582 39.63283,16.29582 13.72072,0 25.5788,-4.2895 35.5913,-12.88613 10.0125,-8.59658 16.32971,-19.4221 18.9255,-32.45877 h 46.7163 c 2.7813,13.22564 9.23323,24.08949 19.3384,32.59165 10.10515,8.50213 21.82846,12.75325 35.17846,12.75325 15.57503,0 28.74823,-5.56924 39.50245,-16.71651 10.7542,-11.14727 16.12254,-24.66956 16.12254,-40.54026 0,-15.68171 -5.42773,-29.04463 -16.27467,-40.09744 -10.84685,-11.05282 -23.96078,-16.58368 -39.35032,-16.58368 h -8.90865 L 300.27403,81.92836 c -1.66878,-4.534517 -4.41232,-8.137602 -8.21335,-10.782677 -3.8011,-2.645126 -8.1077,-3.963286 -12.92851,-3.963286 z m -77.87496,90.689793 c 7.60202,0 14.12928,2.08713 19.59913,6.24374 5.4698,4.15665 9.33455,9.62697 11.55951,16.42868 h -31.15864 v 22.67245 h 31.15864 c -2.22496,6.61279 -6.08971,12.04473 -11.55951,16.29582 -5.46985,4.25112 -11.99711,6.37662 -19.59913,6.37662 -9.45626,0 -17.37416,-3.30644 -23.77105,-9.91916 -6.39685,-6.61274 -9.60395,-14.64266 -9.60395,-24.08948 0,-9.63582 3.2071,-17.704 9.60395,-24.22232 6.39689,-6.51833 14.31479,-9.78635 23.77105,-9.78635 z m 77.31001,0 h 33.93994 c -2.59578,3.21188 -4.68172,6.71613 -6.25782,10.49484 -1.57605,3.77872 -2.83195,7.83209 -3.75903,12.17758 h -15.57933 z m 77.33177,0 h 1.10804 c 9.45628,0 17.37417,3.26802 23.77106,9.78635 6.39688,6.51832 9.60397,14.5865 9.60397,24.22232 0,9.44682 -3.20709,17.47674 -9.60397,24.08948 -6.39689,6.61272 -14.31478,9.91916 -23.77106,9.91916 -9.45623,0 -17.37409,-3.30644 -23.77096,-9.91916 -6.39691,-6.61274 -9.604,-14.64266 -9.604,-24.08948 0,-5.47915 1.02462,-10.40045 3.06369,-14.74595 2.03955,-4.34548 4.91795,-8.12433 8.62624,-11.33619 l 10.5601,30.0454 21.14178,-7.9265 z"
     id="path20"
     style="fill:#e31837;fill-opacity:1;stroke-width:0.999996" /><path
     d="m 242.5261,264.00006 c -5.05189,0 -9.38178,1.6627 -12.96701,5.00348 -3.58521,3.34077 -5.68841,7.46699 -6.34029,12.35588 l -15.1632,127.11112 -41.55554,11.97397 v 19.55556 h 176 V 420.44451 L 300.9445,408.47054 285.78131,281.35942 c -0.65217,-4.88889 -2.75507,-9.01511 -6.34029,-12.35588 -3.58521,-3.34078 -7.91512,-5.00348 -12.967,-5.00348 z m 11.97396,19.55555 c 2.77034,0 5.09637,0.9328 6.97048,2.80729 1.8741,1.87412 2.8073,4.20015 2.8073,6.97049 V 410.66672 H 244.72226 V 293.33339 c 0,-2.77034 0.9328,-5.09637 2.80731,-6.97049 1.87411,-1.8741 4.20016,-2.80729 6.97049,-2.80729 z"
     style="fill:#1a6fc4;fill-opacity:1;stroke-width:0.999996"
     id="path23" /></svg>
